<?xml version="1.0" encoding="UTF-8" standalone="no"?><!-- Generator: Gravit.io --><svg xmlns="http://www.w3.org/2000/svg" xmlns:xlink="http://www.w3.org/1999/xlink" style="isolation:isolate" viewBox="0 0 152 80" width="152pt" height="80pt"><defs><clipPath id="_clipPath_bMNCINMllKlx07PdSRBTWtUGP9ecpBYf"><rect width="152" height="80"/></clipPath></defs><g clip-path="url(#_clipPath_bMNCINMllKlx07PdSRBTWtUGP9ecpBYf)"><path d=" M 76.004 70.129 C 37.988 70.129 7.172 56.641 7.172 40.004 C 7.172 23.359 37.988 9.871 76.004 9.871 C 102.207 9.871 124.992 16.285 136.617 25.719 C 142.477 29.91 145.609 34.734 145.609 39.785 C 145.609 43.707 143.711 47.484 140.129 50.941 C 130.125 62.172 105.195 70.129 76.004 70.129 Z  M 76.004 7.832 C 36.262 7.832 5.133 21.961 5.133 40.004 C 5.133 58.039 36.262 72.168 76.004 72.168 C 115.738 72.168 146.867 58.039 146.867 40.004 C 146.867 21.961 115.738 7.832 76.004 7.832 Z " fill="rgb(41,39,35)"/><path d=" M 126.551 59.324 C 119.996 62.078 112.27 64.152 103.859 65.484 C 96.738 66.613 89.125 67.207 81.293 67.207 C 64.207 67.207 48.133 64.406 36.031 59.324 C 23.738 54.16 16.969 47.223 16.969 39.785 C 16.969 32.352 23.738 25.414 36.031 20.25 C 48.133 15.168 64.207 12.371 81.293 12.371 C 85.117 12.371 88.883 12.52 92.57 12.793 C 105.367 13.742 117.156 16.305 126.551 20.25 C 130.488 21.906 133.852 23.742 136.617 25.719 C 124.992 16.285 102.207 9.871 76.004 9.871 C 37.988 9.871 7.172 23.359 7.172 40.004 C 7.172 56.641 37.988 70.129 76.004 70.129 C 105.195 70.129 130.125 62.172 140.129 50.941 C 136.918 54.039 132.359 56.883 126.551 59.324 Z " fill="rgb(184,173,83)"/><path d=" M 81.293 13.062 C 46.152 13.062 17.664 25.027 17.664 39.785 C 17.664 54.547 46.152 66.512 81.293 66.512 C 95.82 66.512 109.203 64.465 119.914 61.02 C 133.406 56.684 142.648 50.133 144.547 42.652 C 144.789 41.711 144.918 40.754 144.918 39.785 C 144.918 37.934 144.469 36.125 143.613 34.379 C 139.746 26.477 127.566 19.848 111.082 16.172 C 102.191 14.191 92.059 13.062 81.293 13.062 Z " fill="rgb(255,255,255)"/><path d=" M 133.738 30.238 L 48.297 30.238 L 48.297 27.73 L 133.738 27.73 L 133.738 30.238 Z " fill-rule="evenodd" fill="rgb(41,39,35)"/><path d=" M 133.699 48.973 L 26.281 48.973 L 26.281 46.469 L 133.699 46.469 L 133.699 48.973 Z " fill-rule="evenodd" fill="rgb(41,39,35)"/><path d=" M 49.719 44.937 L 49.719 42.508 L 50.438 42.508 C 50.668 42.508 50.836 42.465 50.941 42.387 C 51.047 42.309 51.098 42.102 51.098 41.77 L 51.098 34.898 C 51.098 34.574 51.047 34.371 50.941 34.289 C 50.836 34.211 50.668 34.172 50.438 34.172 L 49.719 34.172 L 49.719 31.742 L 56.297 31.742 L 56.297 34.172 L 55.633 34.172 C 55.426 34.172 55.273 34.215 55.18 34.305 C 55.082 34.395 55.035 34.59 55.035 34.898 L 55.035 42.277 L 56.602 42.277 C 56.949 42.277 57.211 42.25 57.383 42.195 C 57.555 42.137 57.695 41.988 57.805 41.738 C 57.914 41.488 57.984 41.086 58.008 40.527 L 60.344 40.527 L 60.344 44.937 L 49.719 44.937 Z " fill="rgb(41,39,35)"/><path d=" M 71.664 44.937 L 71.664 42.508 L 72.023 42.508 C 72.25 42.508 72.414 42.465 72.52 42.387 C 72.621 42.309 72.676 42.102 72.676 41.77 L 72.703 37.184 L 72.492 37.184 L 70.195 42.883 L 68.523 42.883 L 66.098 37.285 L 65.977 37.285 L 65.977 41.77 C 65.977 42.023 66.02 42.207 66.102 42.328 C 66.184 42.445 66.355 42.508 66.621 42.508 L 66.98 42.508 L 66.98 44.937 L 61.859 44.937 L 61.859 42.508 L 62.402 42.508 C 62.648 42.508 62.82 42.465 62.918 42.379 C 63.016 42.293 63.063 42.09 63.063 41.77 L 63.063 34.926 C 63.063 34.652 63.027 34.457 62.957 34.34 C 62.887 34.23 62.703 34.172 62.402 34.172 L 61.859 34.172 L 61.859 31.742 L 67.73 31.742 L 69.945 36.906 L 70.23 36.906 L 72.324 31.742 L 77.836 31.742 L 77.836 34.172 L 77.301 34.172 C 76.996 34.172 76.805 34.23 76.73 34.34 C 76.66 34.457 76.621 34.652 76.621 34.926 L 76.621 41.77 C 76.621 41.992 76.652 42.156 76.707 42.27 C 76.77 42.379 76.84 42.445 76.93 42.469 C 77.02 42.496 77.145 42.508 77.301 42.508 L 77.836 42.508 L 77.836 44.937 L 71.664 44.937 Z " fill="rgb(41,39,35)"/><path d=" M 85.984 35.152 L 84.836 38.934 L 87.137 38.934 L 86.078 35.152 L 85.984 35.152 Z  M 89.473 31.746 L 92.121 41.398 C 92.258 41.84 92.375 42.137 92.477 42.285 C 92.578 42.437 92.781 42.512 93.09 42.512 L 93.375 42.512 L 93.375 44.941 L 87.082 44.941 L 87.082 42.512 L 87.531 42.512 C 87.867 42.512 88.039 42.41 88.039 42.211 C 88.039 42.133 88.012 42.008 87.965 41.836 C 87.957 41.801 87.949 41.758 87.934 41.711 C 87.922 41.66 87.914 41.621 87.91 41.59 L 84.008 41.59 C 83.934 41.773 83.898 41.926 83.898 42.047 C 83.898 42.187 83.926 42.289 83.98 42.355 C 84.035 42.422 84.102 42.465 84.176 42.484 C 84.254 42.504 84.34 42.512 84.438 42.512 L 84.625 42.512 L 84.625 44.941 L 79.582 44.941 L 79.582 42.512 L 79.875 42.512 C 80.109 42.512 80.293 42.469 80.43 42.383 C 80.563 42.297 80.684 42.141 80.789 41.918 C 80.891 41.691 81.012 41.355 81.145 40.91 L 82.969 35.059 C 83.07 34.758 83.125 34.551 83.125 34.434 C 83.125 34.344 83.082 34.277 83 34.234 C 82.918 34.195 82.695 34.176 82.332 34.176 L 82.012 34.176 L 82.012 31.746 L 89.473 31.746 Z " fill="rgb(41,39,35)"/><path d=" M 105.996 36.801 L 101.523 36.801 C 101.48 35.844 101.367 35.148 101.18 34.719 C 100.992 34.285 100.586 34.07 99.961 34.07 C 99.586 34.07 99.289 34.152 99.066 34.316 C 98.848 34.484 98.68 34.715 98.566 35.008 C 98.453 35.301 98.379 35.629 98.34 35.992 C 98.305 36.352 98.285 36.777 98.285 37.27 L 98.285 38.289 C 98.293 38.422 98.297 38.566 98.305 38.723 C 98.309 38.875 98.316 39.184 98.324 39.648 C 98.328 40.508 98.398 41.156 98.535 41.602 C 98.668 42.047 98.848 42.324 99.074 42.441 C 99.297 42.559 99.605 42.617 99.996 42.617 C 100.176 42.617 100.355 42.59 100.539 42.539 C 100.723 42.488 100.906 42.367 101.09 42.18 C 101.277 41.992 101.43 41.695 101.551 41.281 C 101.676 40.867 101.734 40.312 101.734 39.621 L 106.199 39.621 C 106.172 40.684 105.902 41.645 105.387 42.504 C 104.875 43.363 104.148 44.039 103.219 44.527 C 102.285 45.016 101.219 45.258 100.016 45.258 C 99.094 45.258 98.18 45.074 97.266 44.711 C 96.352 44.344 95.559 43.652 94.895 42.625 C 94.23 41.602 93.898 40.172 93.898 38.34 C 93.898 37.039 94.141 35.863 94.629 34.816 C 95.117 33.766 95.82 32.941 96.734 32.336 C 97.652 31.73 98.723 31.43 99.941 31.43 C 100.898 31.43 101.754 31.574 102.508 31.867 C 103.262 32.16 103.895 32.555 104.402 33.055 C 104.914 33.555 105.301 34.125 105.574 34.77 C 105.844 35.41 105.984 36.086 105.996 36.801 Z " fill="rgb(41,39,35)"/><path d=" M 113.723 34.07 C 113.348 34.07 113.047 34.168 112.816 34.363 C 112.586 34.559 112.41 34.836 112.293 35.187 C 112.172 35.539 112.094 35.914 112.063 36.309 C 112.027 36.703 112.012 37.176 112.012 37.727 L 112.012 38.988 C 112.012 39.668 112.043 40.262 112.105 40.773 C 112.172 41.285 112.332 41.723 112.586 42.078 C 112.84 42.437 113.219 42.617 113.723 42.617 C 114.457 42.617 114.93 42.289 115.133 41.629 C 115.34 40.973 115.441 40.09 115.441 38.988 L 115.441 37.727 C 115.441 36.645 115.34 35.762 115.133 35.086 C 114.93 34.41 114.457 34.07 113.723 34.07 Z  M 113.723 31.43 C 114.875 31.43 115.844 31.656 116.629 32.113 C 117.414 32.57 118.047 33.141 118.523 33.82 C 118.809 34.207 119.039 34.621 119.223 35.062 C 119.41 35.504 119.543 35.926 119.625 36.324 C 119.707 36.723 119.762 37.078 119.789 37.387 C 119.816 37.695 119.832 38.016 119.832 38.34 C 119.832 38.75 119.809 39.16 119.762 39.574 C 119.715 39.988 119.648 40.387 119.555 40.77 C 119.465 41.148 119.336 41.531 119.172 41.918 C 119.012 42.305 118.824 42.645 118.605 42.937 C 117.508 44.484 115.883 45.258 113.723 45.258 C 112.531 45.258 111.535 45.035 110.73 44.59 C 109.93 44.145 109.293 43.594 108.828 42.937 C 108.43 42.375 108.129 41.703 107.926 40.922 C 107.723 40.137 107.621 39.277 107.621 38.34 C 107.641 37.773 107.672 37.301 107.715 36.914 C 107.758 36.527 107.875 36.051 108.063 35.488 C 108.254 34.922 108.539 34.367 108.918 33.82 C 109.176 33.461 109.492 33.105 109.867 32.766 C 110.242 32.422 110.762 32.113 111.422 31.84 C 112.086 31.566 112.852 31.43 113.723 31.43 Z " fill="rgb(41,39,35)"/><path d=" M 126.137 34.402 L 126.137 37.117 L 126.551 37.117 C 127.031 37.117 127.406 36.988 127.668 36.734 C 127.93 36.48 128.063 36.109 128.063 35.625 C 128.063 35.086 127.906 34.746 127.602 34.609 C 127.297 34.469 126.918 34.402 126.469 34.402 L 126.137 34.402 Z  M 121.086 31.742 L 127.656 31.742 C 129.613 31.742 130.902 32.141 131.527 32.937 C 132.156 33.734 132.469 34.633 132.469 35.625 C 132.469 36.23 132.316 36.797 132.012 37.312 C 131.707 37.832 131.266 38.238 130.688 38.531 L 131.785 40.457 C 131.906 40.687 132.063 40.977 132.246 41.316 C 132.43 41.656 132.633 41.93 132.852 42.133 C 133.074 42.34 133.344 42.465 133.656 42.508 L 133.656 44.934 L 127.539 44.934 L 127.539 42.508 C 127.785 42.496 127.961 42.457 128.07 42.391 C 128.18 42.328 128.234 42.211 128.234 42.039 C 128.234 41.848 128.129 41.562 127.914 41.184 L 127.184 39.773 L 126.137 39.773 L 126.137 41.77 C 126.137 41.984 126.176 42.16 126.25 42.301 C 126.32 42.437 126.488 42.508 126.754 42.508 L 126.754 44.934 L 121.086 44.934 L 121.086 42.508 L 121.609 42.508 C 121.789 42.508 121.926 42.488 122.02 42.449 C 122.117 42.406 122.184 42.312 122.219 42.168 C 122.254 42.02 122.273 41.785 122.273 41.469 L 122.273 35.211 C 122.273 34.789 122.238 34.508 122.172 34.371 C 122.105 34.23 121.918 34.164 121.609 34.164 L 121.086 34.164 L 121.086 31.742 Z " fill="rgb(41,39,35)"/><path d=" M 36.516 20.312 L 34.68 29.797 L 38.355 29.797 L 36.664 20.312 L 36.516 20.312 Z  M 42.09 11.773 L 46.324 35.98 C 46.539 37.09 46.727 37.832 46.891 38.207 C 47.051 38.586 47.379 38.773 47.867 38.773 L 48.324 38.773 L 48.324 44.863 L 38.266 44.863 L 38.266 38.773 L 38.988 38.773 C 39.527 38.773 39.797 38.52 39.797 38.02 C 39.797 37.82 39.758 37.508 39.68 37.082 C 39.668 36.992 39.652 36.883 39.633 36.762 C 39.613 36.641 39.598 36.543 39.59 36.465 L 33.355 36.465 C 33.238 36.922 33.18 37.305 33.18 37.605 C 33.18 37.957 33.223 38.219 33.313 38.383 C 33.398 38.551 33.504 38.66 33.629 38.703 C 33.75 38.75 33.891 38.773 34.047 38.773 L 34.34 38.773 L 34.34 44.863 L 26.285 44.863 L 26.285 38.773 L 26.754 38.773 C 27.129 38.773 27.422 38.664 27.637 38.449 C 27.852 38.234 28.043 37.844 28.211 37.281 C 28.375 36.719 28.566 35.879 28.781 34.754 L 31.695 20.086 C 31.859 19.328 31.945 18.805 31.945 18.512 C 31.945 18.281 31.879 18.117 31.746 18.016 C 31.613 17.918 31.258 17.867 30.68 17.867 L 30.164 17.867 L 30.164 11.773 L 42.09 11.773 Z " fill="rgb(41,39,35)"/><path d=" M 143.613 34.379 C 144.469 36.125 144.918 37.934 144.918 39.785 C 144.918 40.754 144.789 41.711 144.547 42.652 C 142.648 50.133 133.41 56.684 119.914 61.02 C 109.203 64.465 95.82 66.512 81.293 66.512 C 46.152 66.512 17.664 54.547 17.664 39.785 C 17.664 25.027 46.152 13.062 81.293 13.062 C 92.059 13.062 102.191 14.191 111.082 16.172 C 127.566 19.848 139.75 26.477 143.613 34.379 Z  M 136.617 25.719 C 133.852 23.742 130.488 21.906 126.551 20.25 C 117.156 16.305 105.367 13.742 92.57 12.793 C 88.883 12.516 85.117 12.371 81.293 12.371 C 64.207 12.371 48.133 15.168 36.031 20.25 C 23.738 25.414 16.969 32.352 16.969 39.785 C 16.969 47.223 23.738 54.16 36.031 59.324 C 48.133 64.406 64.207 67.207 81.293 67.207 C 89.125 67.207 96.734 66.613 103.855 65.484 C 112.27 64.152 119.996 62.078 126.551 59.324 C 132.359 56.883 136.918 54.043 140.129 50.941 C 143.711 47.484 145.609 43.703 145.609 39.785 C 145.609 34.734 142.477 29.91 136.617 25.719 Z " fill="rgb(41,39,35)"/></g></svg>